<?xml version="1.0" encoding="UTF-8"?><!DOCTYPE svg PUBLIC "-//W3C//DTD SVG 1.1//EN" "http://www.w3.org/Graphics/SVG/1.1/DTD/svg11.dtd"><svg xmlns="http://www.w3.org/2000/svg" xmlns:xlink="http://www.w3.org/1999/xlink"><defs/><symbol id="arrow-circle-up-solid" viewBox="0 0 512 512" role="img"><path fill="currentColor" d="M8 256C8 119 119 8 256 8s248 111 248 248-111 248-248 248S8 393 8 256zm143.6 28.9l72.4-75.5V392c0 13.3 10.7 24 24 24h16c13.3 0 24-10.7 24-24V209.4l72.4 75.5c9.3 9.7 24.8 9.9 34.3.4l10.9-11c9.4-9.4 9.4-24.6 0-33.9L273 107.7c-9.4-9.4-24.6-9.4-33.9 0L106.3 240.4c-9.4 9.4-9.4 24.6 0 33.9l10.9 11c9.6 9.5 25.1 9.3 34.4-.4z"/></symbol><symbol id="award-solid" viewBox="0 0 512 512"><path d="m337.903 358.822 23.413-37.992 42.252-14.41 4.681-44.377 31.789-31.295-15.114-42.006 15.114-42.007-31.788-31.295-4.681-44.376-42.252-14.41-23.413-37.993-44.285 5.347-37.619-24.008-37.619 24.01-44.284-5.347-23.413 37.992-42.252 14.41-4.681 44.376-31.789 31.295 15.114 42.007-15.114 42.007 31.788 31.294 4.681 44.377 42.252 14.41 23.413 37.992 44.285-5.346 37.619 24.009 37.619-24.009zm-211.332-170.079c0-71.367 58.062-129.429 129.429-129.429s129.429 58.062 129.429 129.429-58.062 129.429-129.429 129.429-129.429-58.062-129.429-129.429z"/><path d="m256 89.333c-54.815 0-99.41 44.595-99.41 99.41s44.595 99.41 99.41 99.41 99.41-44.595 99.41-99.41-44.595-99.41-99.41-99.41z"/><path d="m211.299 384.568-52.68 6.36-27.833-45.167-9.462-3.226-40.813 127.566 73.475-4.041 57.485 45.94 33.828-105.732z"/><path d="m381.214 345.762-27.834 45.166-52.679-6.36-34 21.7 33.828 105.732 57.485-45.94 73.475 4.041-40.813-127.566z"/></symbol><symbol id="chalkboard-teacher-solid" viewBox="0 0 640 512" role="img"><path fill="currentColor" d="M208 352c-2.39 0-4.78.35-7.06 1.09C187.98 357.3 174.35 360 160 360c-14.35 0-27.98-2.7-40.95-6.91-2.28-.74-4.66-1.09-7.05-1.09C49.94 352-.33 402.48 0 464.62.14 490.88 21.73 512 48 512h224c26.27 0 47.86-21.12 48-47.38.33-62.14-49.94-112.62-112-112.62zm-48-32c53.02 0 96-42.98 96-96s-42.98-96-96-96-96 42.98-96 96 42.98 96 96 96zM592 0H208c-26.47 0-48 22.25-48 49.59V96c23.42 0 45.1 6.78 64 17.8V64h352v288h-64v-64H384v64h-76.24c19.1 16.69 33.12 38.73 39.69 64H592c26.47 0 48-22.25 48-49.59V49.59C640 22.25 618.47 0 592 0z"/></symbol><symbol id="data" viewBox="0 0 512 512"><path d="m376 302c-32.058 0-60.454 14.753-79.73 37.478l-64.327-41.195c5.739-12.962 9.057-27.221 9.057-42.283s-3.318-29.321-9.056-42.283l64.327-41.195c19.275 22.725 47.671 37.478 79.729 37.478 57.891 0 105-47.109 105-105s-47.109-105-105-105-105 47.109-105 105c0 15.062 3.318 29.321 9.056 42.283l-64.327 41.195c-19.275-22.725-47.671-37.478-79.729-37.478-57.891 0-105 47.109-105 105s47.109 105 105 105c32.058 0 60.454-14.753 79.73-37.478l64.327 41.195c-5.739 12.962-9.057 27.221-9.057 42.283 0 57.891 47.109 105 105 105s105-47.109 105-105-47.109-105-105-105z"/></symbol><symbol id="database-solid" viewBox="0 0 448 512" role="img"><path fill="currentColor" d="M448 73.143v45.714C448 159.143 347.667 192 224 192S0 159.143 0 118.857V73.143C0 32.857 100.333 0 224 0s224 32.857 224 73.143zM448 176v102.857C448 319.143 347.667 352 224 352S0 319.143 0 278.857V176c48.125 33.143 136.208 48.572 224 48.572S399.874 209.143 448 176zm0 160v102.857C448 479.143 347.667 512 224 512S0 479.143 0 438.857V336c48.125 33.143 136.208 48.572 224 48.572S399.874 369.143 448 336z"/></symbol><symbol id="envelope-regular" viewBox="0 0 512 512" role="img"><path fill="currentColor" d="M464 64H48C21.49 64 0 85.49 0 112v288c0 26.51 21.49 48 48 48h416c26.51 0 48-21.49 48-48V112c0-26.51-21.49-48-48-48zm0 48v40.805c-22.422 18.259-58.168 46.651-134.587 106.49-16.841 13.247-50.201 45.072-73.413 44.701-23.208.375-56.579-31.459-73.413-44.701C106.18 199.465 70.425 171.067 48 152.805V112h416zM48 400V214.398c22.914 18.251 55.409 43.862 104.938 82.646 21.857 17.205 60.134 55.186 103.062 54.955 42.717.231 80.509-37.199 103.053-54.947 49.528-38.783 82.032-64.401 104.947-82.653V400H48z"/></symbol><symbol id="external-link-alt-solid" viewBox="0 0 512 512" role="img"><path fill="currentColor" d="M432,320H400a16,16,0,0,0-16,16V448H64V128H208a16,16,0,0,0,16-16V80a16,16,0,0,0-16-16H48A48,48,0,0,0,0,112V464a48,48,0,0,0,48,48H400a48,48,0,0,0,48-48V336A16,16,0,0,0,432,320ZM488,0h-128c-21.37,0-32.05,25.91-17,41l35.73,35.73L135,320.37a24,24,0,0,0,0,34L157.67,377a24,24,0,0,0,34,0L435.28,133.32,471,169c15,15,41,4.5,41-17V24A24,24,0,0,0,488,0Z"/></symbol><symbol id="file-alt-regular" viewBox="0 0 384 512" role="img"><path fill="currentColor" d="M288 248v28c0 6.6-5.4 12-12 12H108c-6.6 0-12-5.4-12-12v-28c0-6.6 5.4-12 12-12h168c6.6 0 12 5.4 12 12zm-12 72H108c-6.6 0-12 5.4-12 12v28c0 6.6 5.4 12 12 12h168c6.6 0 12-5.4 12-12v-28c0-6.6-5.4-12-12-12zm108-188.1V464c0 26.5-21.5 48-48 48H48c-26.5 0-48-21.5-48-48V48C0 21.5 21.5 0 48 0h204.1C264.8 0 277 5.1 286 14.1L369.9 98c9 8.9 14.1 21.2 14.1 33.9zm-128-80V128h76.1L256 51.9zM336 464V176H232c-13.3 0-24-10.7-24-24V48H48v416h288z"/></symbol><symbol id="file-pdf-solid" viewBox="0 0 384 512" role="img"><path fill="currentColor" d="M181.9 256.1c-5-16-4.9-46.9-2-46.9 8.4 0 7.6 36.9 2 46.9zm-1.7 47.2c-7.7 20.2-17.3 43.3-28.4 62.7 18.3-7 39-17.2 62.9-21.9-12.7-9.6-24.9-23.4-34.5-40.8zM86.1 428.1c0 .8 13.2-5.4 34.9-40.2-6.7 6.3-29.1 24.5-34.9 40.2zM248 160h136v328c0 13.3-10.7 24-24 24H24c-13.3 0-24-10.7-24-24V24C0 10.7 10.7 0 24 0h200v136c0 13.2 10.8 24 24 24zm-8 171.8c-20-12.2-33.3-29-42.7-53.8 4.5-18.5 11.6-46.6 6.2-64.2-4.7-29.4-42.4-26.5-47.8-6.8-5 18.3-.4 44.1 8.1 77-11.6 27.6-28.7 64.6-40.8 85.8-.1 0-.1.1-.2.1-27.1 13.9-73.6 44.5-54.5 68 5.6 6.9 16 10 21.5 10 17.9 0 35.7-18 61.1-61.8 25.8-8.5 54.1-19.1 79-23.2 21.7 11.8 47.1 19.5 64 19.5 29.2 0 31.2-32 19.7-43.4-13.9-13.6-54.3-9.7-73.6-7.2zM377 105L279 7c-4.5-4.5-10.6-7-17-7h-6v128h128v-6.1c0-6.3-2.5-12.4-7-16.9zm-74.1 255.3c4.1-2.7-2.5-11.9-42.8-9 37.1 15.8 42.8 9 42.8 9z"/></symbol><symbol id="film-solid" viewBox="0 0 512 512" role="img"><path fill="currentColor" d="M488 64h-8v20c0 6.6-5.4 12-12 12h-40c-6.6 0-12-5.4-12-12V64H96v20c0 6.6-5.4 12-12 12H44c-6.6 0-12-5.4-12-12V64h-8C10.7 64 0 74.7 0 88v336c0 13.3 10.7 24 24 24h8v-20c0-6.6 5.4-12 12-12h40c6.6 0 12 5.4 12 12v20h320v-20c0-6.6 5.4-12 12-12h40c6.6 0 12 5.4 12 12v20h8c13.3 0 24-10.7 24-24V88c0-13.3-10.7-24-24-24zM96 372c0 6.6-5.4 12-12 12H44c-6.6 0-12-5.4-12-12v-40c0-6.6 5.4-12 12-12h40c6.6 0 12 5.4 12 12v40zm0-96c0 6.6-5.4 12-12 12H44c-6.6 0-12-5.4-12-12v-40c0-6.6 5.4-12 12-12h40c6.6 0 12 5.4 12 12v40zm0-96c0 6.6-5.4 12-12 12H44c-6.6 0-12-5.4-12-12v-40c0-6.6 5.4-12 12-12h40c6.6 0 12 5.4 12 12v40zm272 208c0 6.6-5.4 12-12 12H156c-6.6 0-12-5.4-12-12v-96c0-6.6 5.4-12 12-12h200c6.6 0 12 5.4 12 12v96zm0-168c0 6.6-5.4 12-12 12H156c-6.6 0-12-5.4-12-12v-96c0-6.6 5.4-12 12-12h200c6.6 0 12 5.4 12 12v96zm112 152c0 6.6-5.4 12-12 12h-40c-6.6 0-12-5.4-12-12v-40c0-6.6 5.4-12 12-12h40c6.6 0 12 5.4 12 12v40zm0-96c0 6.6-5.4 12-12 12h-40c-6.6 0-12-5.4-12-12v-40c0-6.6 5.4-12 12-12h40c6.6 0 12 5.4 12 12v40zm0-96c0 6.6-5.4 12-12 12h-40c-6.6 0-12-5.4-12-12v-40c0-6.6 5.4-12 12-12h40c6.6 0 12 5.4 12 12v40z"/></symbol><symbol id="github-alt-brands" viewBox="0 0 480 512" role="img"><path fill="currentColor" d="M186.1 328.7c0 20.9-10.9 55.1-36.7 55.1s-36.7-34.2-36.7-55.1 10.9-55.1 36.7-55.1 36.7 34.2 36.7 55.1zM480 278.2c0 31.9-3.2 65.7-17.5 95-37.9 76.6-142.1 74.8-216.7 74.8-75.8 0-186.2 2.7-225.6-74.8-14.6-29-20.2-63.1-20.2-95 0-41.9 13.9-81.5 41.5-113.6-5.2-15.8-7.7-32.4-7.7-48.8 0-21.5 4.9-32.3 14.6-51.8 45.3 0 74.3 9 108.8 36 29-6.9 58.8-10 88.7-10 27 0 54.2 2.9 80.4 9.2 34-26.7 63-35.2 107.8-35.2 9.8 19.5 14.6 30.3 14.6 51.8 0 16.4-2.6 32.7-7.7 48.2 27.5 32.4 39 72.3 39 114.2zm-64.3 50.5c0-43.9-26.7-82.6-73.5-82.6-18.9 0-37 3.4-56 6-14.9 2.3-29.8 3.2-45.1 3.2-15.2 0-30.1-.9-45.1-3.2-18.7-2.6-37-6-56-6-46.8 0-73.5 38.7-73.5 82.6 0 87.8 80.4 101.3 150.4 101.3h48.2c70.3 0 150.6-13.4 150.6-101.3zm-82.6-55.1c-25.8 0-36.7 34.2-36.7 55.1s10.9 55.1 36.7 55.1 36.7-34.2 36.7-55.1-10.9-55.1-36.7-55.1z"/></symbol><symbol id="google-scholar" viewBox="0 0 39 33">
    <g transform="matrix(1,0,0,1,-100,-135)">
        <g transform="matrix(0.45692,0,0,0.538528,724.76,21.6528)">
            <g transform="matrix(2.18857,0,0,1.85691,-4911.22,-2108.11)">
                <path d="M1657.74,1260.1L1638.91,1248.93L1620.07,1260.1L1638.91,1270.53L1653.85,1262.22L1653.85,1274.25L1657.74,1274.25L1657.74,1260.1"/>
            </g>
            <g transform="matrix(2.18857,0,0,1.85691,-4911.22,-2108.11)">
                <path d="M1638.91,1274.82L1627.31,1267.45L1627.31,1274.25L1638.91,1281.28L1649.95,1274.58L1649.95,1267.99L1638.91,1274.82Z"/>
            </g>
        </g>
    </g>
</symbol><symbol id="home-sharp" viewBox="0 0 512 512"><title>ionicons-v5-i</title><polygon points="416 174.74 416 48 336 48 336 106.45 256 32 0 272 64 272 64 480 208 480 208 320 304 320 304 480 448 480 448 272 512 272 416 174.74"/></symbol><symbol id="link-solid" viewBox="0 0 512 512" role="img"><path fill="currentColor" d="M326.612 185.391c59.747 59.809 58.927 155.698.36 214.59-.11.12-.24.25-.36.37l-67.2 67.2c-59.27 59.27-155.699 59.262-214.96 0-59.27-59.26-59.27-155.7 0-214.96l37.106-37.106c9.84-9.84 26.786-3.3 27.294 10.606.648 17.722 3.826 35.527 9.69 52.721 1.986 5.822.567 12.262-3.783 16.612l-13.087 13.087c-28.026 28.026-28.905 73.66-1.155 101.96 28.024 28.579 74.086 28.749 102.325.51l67.2-67.19c28.191-28.191 28.073-73.757 0-101.83-3.701-3.694-7.429-6.564-10.341-8.569a16.037 16.037 0 0 1-6.947-12.606c-.396-10.567 3.348-21.456 11.698-29.806l21.054-21.055c5.521-5.521 14.182-6.199 20.584-1.731a152.482 152.482 0 0 1 20.522 17.197zM467.547 44.449c-59.261-59.262-155.69-59.27-214.96 0l-67.2 67.2c-.12.12-.25.25-.36.37-58.566 58.892-59.387 154.781.36 214.59a152.454 152.454 0 0 0 20.521 17.196c6.402 4.468 15.064 3.789 20.584-1.731l21.054-21.055c8.35-8.35 12.094-19.239 11.698-29.806a16.037 16.037 0 0 0-6.947-12.606c-2.912-2.005-6.64-4.875-10.341-8.569-28.073-28.073-28.191-73.639 0-101.83l67.2-67.19c28.239-28.239 74.3-28.069 102.325.51 27.75 28.3 26.872 73.934-1.155 101.96l-13.087 13.087c-4.35 4.35-5.769 10.79-3.783 16.612 5.864 17.194 9.042 34.999 9.69 52.721.509 13.906 17.454 20.446 27.294 10.606l37.106-37.106c59.271-59.259 59.271-155.699.001-214.959z"/></symbol><symbol id="linkedin-brands" viewBox="0 0 448 512" role="img"><path fill="currentColor" d="M416 32H31.9C14.3 32 0 46.5 0 64.3v383.4C0 465.5 14.3 480 31.9 480H416c17.6 0 32-14.5 32-32.3V64.3c0-17.8-14.4-32.3-32-32.3zM135.4 416H69V202.2h66.5V416zm-33.2-243c-21.3 0-38.5-17.3-38.5-38.5S80.9 96 102.2 96c21.2 0 38.5 17.3 38.5 38.5 0 21.3-17.2 38.5-38.5 38.5zm282.1 243h-66.4V312c0-24.8-.5-56.7-34.5-56.7-34.6 0-39.9 27-39.9 54.9V416h-66.4V202.2h63.7v29.2h.9c8.9-16.8 30.6-34.5 62.9-34.5 67.2 0 79.7 44.3 79.7 101.9V416z"/></symbol><symbol id="orcid-brands" viewBox="0 0 512 512" role="img"><path fill="currentColor" d="M294.75 188.19h-45.92V342h47.47c67.62 0 83.12-51.34 83.12-76.91 0-41.64-26.54-76.9-84.67-76.9zM256 8C119 8 8 119 8 256s111 248 248 248 248-111 248-248S393 8 256 8zm-80.79 360.76h-29.84v-207.5h29.84zm-14.92-231.14a19.57 19.57 0 1 1 19.57-19.57 19.64 19.64 0 0 1-19.57 19.57zM300 369h-81V161.26h80.6c76.73 0 110.44 54.83 110.44 103.85C410 318.39 368.38 369 300 369z"/></symbol><symbol id="play-solid" viewBox="0 0 448 512" role="img"><path fill="currentColor" d="M424.4 214.7L72.4 6.6C43.8-10.3 0 6.1 0 47.9V464c0 37.5 40.7 60.1 72.4 41.3l352-208c31.4-18.5 31.5-64.1 0-82.6z"/></symbol><symbol id="plus-circle-solid" viewBox="0 0 512 512" role="img"><path fill="currentColor" d="M256 8C119 8 8 119 8 256s111 248 248 248 248-111 248-248S393 8 256 8zm144 276c0 6.6-5.4 12-12 12h-92v92c0 6.6-5.4 12-12 12h-56c-6.6 0-12-5.4-12-12v-92h-92c-6.6 0-12-5.4-12-12v-56c0-6.6 5.4-12 12-12h92v-92c0-6.6 5.4-12 12-12h56c6.6 0 12 5.4 12 12v92h92c6.6 0 12 5.4 12 12v56z"/></symbol><symbol id="poster" viewBox="0 0 512 512" role="img"><path fill="currentColor" d="M464 448H48c-26.51 0-48-21.49-48-48V112c0-26.51 21.49-48 48-48h416c26.51 0 48 21.49 48 48v288c0 26.51-21.49 48-48 48zM112 120c-30.928 0-56 25.072-56 56s25.072 56 56 56 56-25.072 56-56-25.072-56-56-56zM64 384h384V272l-87.515-87.515c-4.686-4.686-12.284-4.686-16.971 0L208 320l-55.515-55.515c-4.686-4.686-12.284-4.686-16.971 0L64 336v48z"/></symbol><symbol id="quote-right-solid" viewBox="0 0 512 512" role="img"><path fill="currentColor" d="M464 32H336c-26.5 0-48 21.5-48 48v128c0 26.5 21.5 48 48 48h80v64c0 35.3-28.7 64-64 64h-8c-13.3 0-24 10.7-24 24v48c0 13.3 10.7 24 24 24h8c88.4 0 160-71.6 160-160V80c0-26.5-21.5-48-48-48zm-288 0H48C21.5 32 0 53.5 0 80v128c0 26.5 21.5 48 48 48h80v64c0 35.3-28.7 64-64 64h-8c-13.3 0-24 10.7-24 24v48c0 13.3 10.7 24 24 24h8c88.4 0 160-71.6 160-160V80c0-26.5-21.5-48-48-48z"/></symbol><symbol id="rocket-sharp" viewBox="0 0 512 512">
    <g transform="matrix(1,0,0,1,-2.3526,-2.33094)">
        <g transform="matrix(1.10402,0,0,1.10402,-24.2773,-24.2774)">
            <path d="M477.64,38.26C477.268,36.458 475.88,35.027 474.09,34.6C415.52,20.28 280.19,71.31 206.87,144.6C193.793,157.572 181.871,171.658 171.24,186.7C148.63,184.7 126.02,186.37 106.75,194.77C52.38,218.7 36.55,281.14 32.14,308C32.049,308.534 32.003,309.075 32.003,309.617C32.003,314.905 36.355,319.257 41.643,319.257C41.993,319.257 42.342,319.238 42.69,319.2L130,309.57C130.062,316.153 130.46,322.728 131.19,329.27C131.629,333.812 133.647,338.06 136.89,341.27L170.7,375C173.913,378.239 178.159,380.256 182.7,380.7C189.206,381.428 195.744,381.825 202.29,381.89L192.71,469.09C192.673,469.434 192.654,469.779 192.654,470.125C192.654,475.418 197.011,479.775 202.304,479.775C202.842,479.775 203.379,479.73 203.91,479.64C230.72,475.34 293.27,459.51 317.06,405.14C325.46,385.87 327.18,363.37 325.24,340.87C340.318,330.238 354.442,318.313 367.45,305.23C441,232.05 491.74,99.74 477.64,38.26ZM294.07,217.93C285.065,208.931 280,196.709 280,183.978C280,157.646 301.668,135.978 328,135.978C354.332,135.978 376,157.646 376,183.978C376,196.709 370.935,208.931 361.93,217.93C352.939,226.934 340.724,231.998 328,231.998C315.276,231.998 303.061,226.934 294.07,217.93Z" style="fill-rule:nonzero;"/>
        </g>
        <g transform="matrix(1.10402,0,0,1.10402,-24.2773,-24.2774)">
            <path d="M168.4,399.43C162.92,404.92 154.13,407.06 143.55,408.89C119.78,412.94 98.79,392.4 103.06,368.37C104.69,359.26 109.51,346.49 112.51,343.49C113.348,342.668 113.82,341.543 113.82,340.37C113.82,337.973 111.848,336 109.45,336C109.253,336 109.056,336.013 108.86,336.04C95.57,337.666 83.2,343.695 73.73,353.16C50.22,376.69 48,464 48,464C48,464 135.36,461.78 158.87,438.25C168.365,428.788 174.401,416.399 176,403.09C176.37,398.91 171.28,396.42 168.4,399.43Z" style="fill-rule:nonzero;"/>
        </g>
    </g>
</symbol><symbol id="slides" viewBox="0 0 512 512">
<g>
	<g>
		<path d="M512,352.024V0H0v352.024h241v40.718l-115.392,96.16l19.205,23.047L241,431.793V512h30v-80.207l96.187,80.156
			l19.205-23.047L271,392.742v-40.718H512z M260.4,139.816l-91.601,151.36L60.055,210.364l17.895-24.079l82.265,61.135
			l91.387-151.007l82.823,59.95l66.315-66.315h-55.787v-30h107v107h-30v-55.787l-84.401,84.401L260.4,139.816z"/>
	</g>
</g>
<g>
</g>
<g>
</g>
<g>
</g>
<g>
</g>
<g>
</g>
<g>
</g>
<g>
</g>
<g>
</g>
<g>
</g>
<g>
</g>
<g>
</g>
<g>
</g>
<g>
</g>
<g>
</g>
<g>
</g>
</symbol><symbol id="star-solid" viewBox="0 0 576 512" role="img"><path fill="currentColor" d="M259.3 17.8L194 150.2 47.9 171.5c-26.2 3.8-36.7 36.1-17.7 54.6l105.7 103-25 145.5c-4.5 26.3 23.2 46 46.4 33.7L288 439.6l130.7 68.7c23.2 12.2 50.9-7.4 46.4-33.7l-25-145.5 105.7-103c19-18.5 8.5-50.8-17.7-54.6L382 150.2 316.7 17.8c-11.7-23.6-45.6-23.9-57.4 0z"/></symbol><symbol id="t-heart" viewBox="0 0 36 36"><path fill="#DD2E44" d="M35.885 11.833c0-5.45-4.418-9.868-9.867-9.868-3.308 0-6.227 1.633-8.018 4.129-1.791-2.496-4.71-4.129-8.017-4.129-5.45 0-9.868 4.417-9.868 9.868 0 .772.098 1.52.266 2.241C1.751 22.587 11.216 31.568 18 34.034c6.783-2.466 16.249-11.447 17.617-19.959.17-.721.268-1.469.268-2.242z"/></symbol><symbol id="twitter-brands" viewBox="0 0 512 512" role="img"><path fill="currentColor" d="M459.37 151.716c.325 4.548.325 9.097.325 13.645 0 138.72-105.583 298.558-298.558 298.558-59.452 0-114.68-17.219-161.137-47.106 8.447.974 16.568 1.299 25.34 1.299 49.055 0 94.213-16.568 130.274-44.832-46.132-.975-84.792-31.188-98.112-72.772 6.498.974 12.995 1.624 19.818 1.624 9.421 0 18.843-1.3 27.614-3.573-48.081-9.747-84.143-51.98-84.143-102.985v-1.299c13.969 7.797 30.214 12.67 47.431 13.319-28.264-18.843-46.781-51.005-46.781-87.391 0-19.492 5.197-37.36 14.294-52.954 51.655 63.675 129.3 105.258 216.365 109.807-1.624-7.797-2.599-15.918-2.599-24.04 0-57.828 46.782-104.934 104.934-104.934 30.213 0 57.502 12.67 76.67 33.137 23.715-4.548 46.456-13.32 66.599-25.34-7.798 24.366-24.366 44.833-46.132 57.827 21.117-2.273 41.584-8.122 60.426-16.243-14.292 20.791-32.161 39.308-52.628 54.253z"/></symbol><symbol id="video-solid" viewBox="0 0 576 512" role="img"><path fill="currentColor" d="M336.2 64H47.8C21.4 64 0 85.4 0 111.8v288.4C0 426.6 21.4 448 47.8 448h288.4c26.4 0 47.8-21.4 47.8-47.8V111.8c0-26.4-21.4-47.8-47.8-47.8zm189.4 37.7L416 177.3v157.4l109.6 75.5c21.2 14.6 50.4-.3 50.4-25.8V127.5c0-25.4-29.1-40.4-50.4-25.8z"/></symbol><symbol id="youtube-brands" viewBox="0 0 576 512" role="img"><path fill="currentColor" d="M549.655 124.083c-6.281-23.65-24.787-42.276-48.284-48.597C458.781 64 288 64 288 64S117.22 64 74.629 75.486c-23.497 6.322-42.003 24.947-48.284 48.597-11.412 42.867-11.412 132.305-11.412 132.305s0 89.438 11.412 132.305c6.281 23.65 24.787 41.5 48.284 47.821C117.22 448 288 448 288 448s170.78 0 213.371-11.486c23.497-6.321 42.003-24.171 48.284-47.821 11.412-42.867 11.412-132.305 11.412-132.305s0-89.438-11.412-132.305zm-317.51 213.508V175.185l142.739 81.205-142.739 81.201z"/></symbol></svg>