<svg id="Capa_1" enable-background="new 0 0 512 512" height="512" viewBox="0 0 512 512" width="512" xmlns="http://www.w3.org/2000/svg"><path d="m376 302c-32.058 0-60.454 14.753-79.73 37.478l-64.327-41.195c5.739-12.962 9.057-27.221 9.057-42.283s-3.318-29.321-9.056-42.283l64.327-41.195c19.275 22.725 47.671 37.478 79.729 37.478 57.891 0 105-47.109 105-105s-47.109-105-105-105-105 47.109-105 105c0 15.062 3.318 29.321 9.056 42.283l-64.327 41.195c-19.275-22.725-47.671-37.478-79.729-37.478-57.891 0-105 47.109-105 105s47.109 105 105 105c32.058 0 60.454-14.753 79.73-37.478l64.327 41.195c-5.739 12.962-9.057 27.221-9.057 42.283 0 57.891 47.109 105 105 105s105-47.109 105-105-47.109-105-105-105z"/></svg>