<?xml version="1.0" encoding="UTF-8" standalone="no"?>
<!DOCTYPE svg PUBLIC "-//W3C//DTD SVG 1.1//EN" "http://www.w3.org/Graphics/SVG/1.1/DTD/svg11.dtd">
<svg width="100%" height="100%" viewBox="0 0 512 512" version="1.1" xmlns="http://www.w3.org/2000/svg" xmlns:xlink="http://www.w3.org/1999/xlink" xml:space="preserve" xmlns:serif="http://www.serif.com/" style="fill-rule:evenodd;clip-rule:evenodd;stroke-linejoin:round;stroke-miterlimit:2;">
    <g transform="matrix(1,0,0,1,-2.3526,-2.33094)">
        <g transform="matrix(1.10402,0,0,1.10402,-24.2773,-24.2774)">
            <path d="M477.64,38.26C477.268,36.458 475.88,35.027 474.09,34.6C415.52,20.28 280.19,71.31 206.87,144.6C193.793,157.572 181.871,171.658 171.24,186.7C148.63,184.7 126.02,186.37 106.75,194.77C52.38,218.7 36.55,281.14 32.14,308C32.049,308.534 32.003,309.075 32.003,309.617C32.003,314.905 36.355,319.257 41.643,319.257C41.993,319.257 42.342,319.238 42.69,319.2L130,309.57C130.062,316.153 130.46,322.728 131.19,329.27C131.629,333.812 133.647,338.06 136.89,341.27L170.7,375C173.913,378.239 178.159,380.256 182.7,380.7C189.206,381.428 195.744,381.825 202.29,381.89L192.71,469.09C192.673,469.434 192.654,469.779 192.654,470.125C192.654,475.418 197.011,479.775 202.304,479.775C202.842,479.775 203.379,479.73 203.91,479.64C230.72,475.34 293.27,459.51 317.06,405.14C325.46,385.87 327.18,363.37 325.24,340.87C340.318,330.238 354.442,318.313 367.45,305.23C441,232.05 491.74,99.74 477.64,38.26ZM294.07,217.93C285.065,208.931 280,196.709 280,183.978C280,157.646 301.668,135.978 328,135.978C354.332,135.978 376,157.646 376,183.978C376,196.709 370.935,208.931 361.93,217.93C352.939,226.934 340.724,231.998 328,231.998C315.276,231.998 303.061,226.934 294.07,217.93Z" style="fill-rule:nonzero;"/>
        </g>
        <g transform="matrix(1.10402,0,0,1.10402,-24.2773,-24.2774)">
            <path d="M168.4,399.43C162.92,404.92 154.13,407.06 143.55,408.89C119.78,412.94 98.79,392.4 103.06,368.37C104.69,359.26 109.51,346.49 112.51,343.49C113.348,342.668 113.82,341.543 113.82,340.37C113.82,337.973 111.848,336 109.45,336C109.253,336 109.056,336.013 108.86,336.04C95.57,337.666 83.2,343.695 73.73,353.16C50.22,376.69 48,464 48,464C48,464 135.36,461.78 158.87,438.25C168.365,428.788 174.401,416.399 176,403.09C176.37,398.91 171.28,396.42 168.4,399.43Z" style="fill-rule:nonzero;"/>
        </g>
    </g>
</svg>
